<mxfile host="app.diagrams.net" modified="2023-03-30T09:40:20.140Z" agent="Mozilla/5.0 (Macintosh; Intel Mac OS X 10_15_7) AppleWebKit/605.1.15 (KHTML, like Gecko) Version/16.3 Safari/605.1.15" etag="8HE0WDI2hOeCvNfL1efb" version="21.1.2" type="github">
  <diagram name="Page-1" id="-EX5paZXWutpfsB3VYTy">
    <mxGraphModel dx="889" dy="563" grid="1" gridSize="10" guides="1" tooltips="1" connect="1" arrows="1" fold="1" page="1" pageScale="1" pageWidth="827" pageHeight="1169" math="0" shadow="0">
      <root>
        <mxCell id="0" />
        <mxCell id="1" parent="0" />
        <mxCell id="ypFf4fX6RoxXTN_DaOJI-1" value="Minimasi Total Biaya dan Emisi Karbon jika Aktivitas dilakukan" style="ellipse;whiteSpace=wrap;html=1;" vertex="1" parent="1">
          <mxGeometry x="320" y="280" width="160" height="80" as="geometry" />
        </mxCell>
        <mxCell id="ypFf4fX6RoxXTN_DaOJI-2" value="Biaya Batu Bara&lt;br&gt;per kWh" style="ellipse;shape=cloud;whiteSpace=wrap;html=1;" vertex="1" parent="1">
          <mxGeometry x="120" y="120" width="120" height="80" as="geometry" />
        </mxCell>
        <mxCell id="ypFf4fX6RoxXTN_DaOJI-3" value="Biaya Minyak Bumi&lt;br style=&quot;border-color: var(--border-color);&quot;&gt;per kWh" style="ellipse;shape=cloud;whiteSpace=wrap;html=1;" vertex="1" parent="1">
          <mxGeometry x="340" y="120" width="120" height="80" as="geometry" />
        </mxCell>
        <mxCell id="ypFf4fX6RoxXTN_DaOJI-4" value="Biaya Gas Alam&lt;br style=&quot;border-color: var(--border-color);&quot;&gt;per kWh" style="ellipse;shape=cloud;whiteSpace=wrap;html=1;" vertex="1" parent="1">
          <mxGeometry x="560" y="120" width="120" height="80" as="geometry" />
        </mxCell>
      </root>
    </mxGraphModel>
  </diagram>
</mxfile>
